<?xml version="1.0" encoding="utf-8"?>
<!-- Generator: Adobe Illustrator 15.1.0, SVG Export Plug-In . SVG Version: 6.00 Build 0)  -->
<!DOCTYPE svg PUBLIC "-//W3C//DTD SVG 1.1//EN" "http://www.w3.org/Graphics/SVG/1.1/DTD/svg11.dtd">
<svg version="1.1" id="Layer_1" xmlns="http://www.w3.org/2000/svg" xmlns:xlink="http://www.w3.org/1999/xlink" x="0px" y="0px"
	 width="170.008px" height="192.605px" viewBox="0 0 170.008 192.605" enable-background="new 0 0 170.008 192.605"
	 xml:space="preserve">
<g id="SvgjsG1011" transform="translate(-3.1900012493133545,93.00051307678223)" xmlns:name="mainText_mainfill">
	<path fill="#FFFFFF" d="M17.516,31.958c4.524,0.522,4.234,5.452,4.176,9.106c-0.116,3.074-0.406,6.147-0.812,9.164
		c-0.232,1.914-0.58,2.958-2.552,3.596c-3.306,1.103-7.772,1.276-11.426,0.754c-0.058,4.408-0.058,8.874-0.058,13.282
		c0,2.32-3.654,2.32-3.654,0c0-11.368,0.058-22.678,0.58-33.988c0.058-1.044,0.812-1.798,1.856-1.855
		C9.512,31.842,13.572,31.494,17.516,31.958z M18.038,40.716c0-1.275,0.406-4.06-0.406-5.161c0.174,0.29-0.522,0-1.044,0
		c-0.87-0.116-1.74-0.116-2.61-0.116c-2.204,0-4.408,0.058-6.612,0.174C7.134,40.716,7.018,45.82,6.96,50.924
		c3.248,0.522,6.554-0.464,9.802-0.464c0.116,0,0.348-0.058,0.522-0.115c-0.058,0-0.058-0.059-0.058-0.116
		c-0.116-0.87,0.29-2.146,0.348-3.074C17.806,45.008,17.98,42.862,18.038,40.716z M45.356,30.798
		c2.204,1.45,1.856,6.148,1.972,8.353c0.522,8.294,0.638,16.936-0.348,25.172c-0.29,2.784-1.044,4.118-4.002,4.64
		c-3.712,0.639-8.874,1.16-12.47-0.29c-2.494-0.985-2.32-3.073-2.378-5.394c-0.116-4.118,0-8.236,0.116-12.354
		c0.116-4.292,0.29-8.584,0.464-12.876c0.116-2.088-0.174-4.813,0.638-6.728c0.406-0.87,1.044-1.102,1.74-0.928
		c2.088-0.174,4.234-0.232,6.322-0.232C39.44,30.102,43.616,29.58,45.356,30.798z M43.674,60.262c0.406-7.25,0.464-14.616,0-21.866
		c-0.116-1.276-0.174-2.552-0.406-3.828c-0.058-0.174-0.058-0.348-0.116-0.58c-0.348,0-0.696-0.058-0.928-0.116
		c-3.19-0.174-6.438-0.116-9.628,0.059c0,0.231,0,0.521-0.058,0.754c-0.058,1.45-0.116,2.899-0.232,4.35
		c-0.174,4.176-0.29,8.294-0.406,12.47c-0.116,3.538-0.174,7.019-0.174,10.498c0,1.044,0.232,2.204,0.116,3.19v0.116
		c0.174,0,0.58,0.174,0.812,0.174c1.972,0.116,3.886,0.348,5.858,0.231c1.45-0.058,3.306-0.695,4.698-0.521
		c0-0.348,0.116-0.754,0.174-1.044C43.558,62.872,43.616,61.538,43.674,60.262z M68.44,31.958c4.524,0.522,4.234,5.452,4.176,9.106
		c-0.116,3.074-0.406,6.147-0.812,9.164c-0.232,1.914-0.58,2.958-2.552,3.596c-3.306,1.103-7.772,1.276-11.426,0.754
		c-0.058,4.408-0.058,8.874-0.058,13.282c0,2.32-3.654,2.32-3.654,0c0-11.368,0.058-22.678,0.58-33.988
		c0.058-1.044,0.812-1.798,1.856-1.855C60.436,31.842,64.496,31.494,68.44,31.958z M68.962,40.716c0-1.275,0.406-4.06-0.406-5.161
		c0.174,0.29-0.522,0-1.044,0c-0.87-0.116-1.74-0.116-2.61-0.116c-2.204,0-4.408,0.058-6.612,0.174
		c-0.232,5.104-0.348,10.208-0.406,15.312c3.248,0.522,6.554-0.464,9.802-0.464c0.116,0,0.348-0.058,0.522-0.115
		c-0.058,0-0.058-0.059-0.058-0.116c-0.116-0.87,0.29-2.146,0.348-3.074C68.73,45.008,68.904,42.862,68.962,40.716z M95.526,65.772
		c2.377,0.058,2.377,3.712,0,3.596c-3.19-0.058-6.438,0.116-9.628,0.116c-1.682,0.058-4.64,0.58-5.8-1.103
		c-1.45-2.088-0.928-6.438-1.044-8.815c-0.116-5.162-0.116-10.324,0.174-15.544c0.116-3.307-0.058-7.599,1.334-10.672
		c0.754-1.624,1.798-1.798,3.48-1.74c3.48,0.058,6.96-0.116,10.439-0.116c2.32,0,2.32,3.654,0,3.654
		c-1.972,0-3.943,0.058-5.857,0.058c-1.45,0.059-3.364,0.349-4.814,0.116c0,0.58-0.348,1.45-0.464,2.03
		c-0.696,5.046-0.696,10.266-0.696,15.37c0,2.609,0,5.277,0.116,7.888c0.058,1.624,0.464,3.422,0.406,5.046
		c0.986-0.116,2.726,0.232,3.364,0.174C89.552,65.83,92.567,65.656,95.526,65.772z M120.987,30.798
		c2.205,1.45,1.856,6.148,1.973,8.353c0.521,8.294,0.639,16.936-0.348,25.172c-0.291,2.784-1.045,4.118-4.002,4.64
		c-3.713,0.639-8.875,1.16-12.471-0.29c-2.494-0.985-2.32-3.073-2.378-5.394c-0.116-4.118,0-8.236,0.116-12.354
		c0.116-4.292,0.29-8.584,0.464-12.876c0.116-2.088-0.174-4.813,0.638-6.728c0.406-0.87,1.045-1.102,1.74-0.928
		c2.088-0.174,4.234-0.232,6.322-0.232C115.071,30.102,119.248,29.58,120.987,30.798L120.987,30.798z M119.306,60.262
		c0.406-7.25,0.465-14.616,0-21.866c-0.115-1.276-0.174-2.552-0.406-3.828c-0.058-0.174-0.058-0.348-0.115-0.58
		c-0.348,0-0.696-0.058-0.928-0.116c-3.19-0.174-6.438-0.116-9.629,0.059c0,0.231,0,0.521-0.058,0.754
		c-0.058,1.45-0.116,2.899-0.231,4.35c-0.174,4.176-0.291,8.294-0.406,12.47c-0.116,3.538-0.174,7.019-0.174,10.498
		c0,1.044,0.231,2.204,0.115,3.19v0.116c0.174,0,0.58,0.174,0.812,0.174c1.972,0.116,3.886,0.348,5.857,0.231
		c1.45-0.058,3.307-0.695,4.698-0.521c0-0.348,0.116-0.754,0.175-1.044C119.19,62.872,119.248,61.538,119.306,60.262z
		 M145.696,32.422c2.899,1.74,2.203,8.12,2.088,10.847c-0.116,2.842,0.232,8.584-3.016,9.802c-1.045,0.406-2.205,0.696-3.423,0.812
		c2.03,4.234,3.712,8.584,5.568,12.876c0.928,2.146-2.204,4.003-3.132,1.856c-2.088-4.872-4.061-9.86-6.438-14.558
		c-1.334-0.059-2.668-0.175-3.886-0.29c0,4.697-0.059,9.396-0.059,14.094c0,2.32-3.653,2.32-3.653,0
		c0-11.311,0.174-22.562,0.174-33.872c0-0.174,0.058-0.348,0.116-0.522c0.115-0.869,0.695-1.624,1.74-1.682
		c2.783-0.116,5.567-0.058,8.352,0C141.752,31.842,144.246,31.552,145.696,32.422z M144.13,42.63
		c0.059-1.798,0.116-3.596-0.115-5.336c-0.059-0.58-0.175-1.159-0.349-1.739c-0.058,0-0.174,0.058-0.29,0.058
		c-1.855,0.232-4.061-0.174-5.916-0.232h-3.887c0,4.931-0.057,9.803-0.057,14.732c1.508,0.116,3.016,0.116,4.523,0.058
		c1.624,0,3.654-0.58,5.22-0.405h0.116c-0.059-0.58,0.29-1.45,0.406-2.03C144.015,46.052,144.13,44.312,144.13,42.63z
		 M172.956,32.48c-0.521,11.716,0.348,23.548,0.232,35.322c0,1.798-2.494,2.493-3.365,0.928c-3.363-5.685-5.567-12.296-8.062-18.271
		c-1.159-2.668-2.436-5.394-3.653-8.12c-0.116,8.526-0.291,17.053,0.174,25.521c0.174,2.32-3.48,2.32-3.596,0
		c-0.754-11.6-0.117-23.432-0.117-35.09c0-2.088,3.017-2.437,3.597-0.464c1.683,5.741,4.64,11.367,6.96,16.878
		c1.45,3.479,2.842,7.134,4.35,10.729c-0.174-9.164-0.58-18.328-0.174-27.434C169.418,30.102,173.071,30.102,172.956,32.48z"/>
</g>
<g id="SvgjsG1012" transform="translate(24.237783432006836,164.0217113494873)" xmlns:name="sloganText_mainfill">
	<path fill="#FFFFFF" d="M1.396,22.305h1.406v-11.26H1.396V9.18h4.688l4.697,12.783L15.537,9.18h4.443v1.865h-1.396v11.26h1.396
		v1.68h-4.805v-1.68h1.582V10.938l-5.176,13.047h-1.66L4.678,10.909v11.396h1.523v1.68H1.396V22.305z M28.301,23.047
		c-0.384,0.358-0.809,0.651-1.274,0.879s-0.995,0.342-1.587,0.342c-0.495,0-0.949-0.078-1.362-0.234s-0.77-0.369-1.069-0.64
		s-0.532-0.584-0.698-0.942s-0.249-0.739-0.249-1.143c0-0.43,0.063-0.811,0.19-1.143s0.296-0.62,0.508-0.864
		s0.459-0.449,0.742-0.615s0.58-0.3,0.889-0.4s0.625-0.173,0.947-0.215s0.63-0.063,0.923-0.063c0.469,0,0.863,0.015,1.182,0.044
		s0.609,0.07,0.869,0.122l0.01-0.83c0-0.358-0.052-0.669-0.156-0.933s-0.25-0.481-0.439-0.654s-0.415-0.301-0.679-0.386
		s-0.558-0.127-0.884-0.127c-0.306,0-0.599,0.021-0.879,0.063s-0.542,0.098-0.786,0.166s-0.469,0.146-0.674,0.234
		s-0.379,0.181-0.522,0.278l-0.596-1.26c0.241-0.156,0.504-0.301,0.791-0.435s0.587-0.247,0.903-0.342s0.638-0.169,0.967-0.225
		s0.653-0.083,0.972-0.083c0.586,0,1.113,0.07,1.582,0.21s0.866,0.356,1.191,0.649s0.576,0.666,0.752,1.118s0.264,0.994,0.264,1.626
		l-0.01,5.059h1.123v1.68h-2.939V23.047L28.301,23.047z M25.84,22.744c0.241,0,0.482-0.029,0.723-0.088s0.469-0.139,0.684-0.239
		s0.414-0.218,0.596-0.352s0.335-0.271,0.459-0.415l0.01-2.285h-2.109c-0.352,0-0.672,0.039-0.962,0.117s-0.541,0.192-0.752,0.342
		s-0.376,0.335-0.493,0.557s-0.176,0.476-0.176,0.762c0,0.267,0.049,0.5,0.146,0.698s0.236,0.364,0.415,0.498
		s0.392,0.234,0.64,0.303S25.541,22.744,25.84,22.744L25.84,22.744z M33.213,8.789h3.564v1.68h-0.02v7.559h1.758l2.402-2.48h-0.605
		v-1.68h3.838v1.68h-1.279l-3.076,3.174l3.359,3.584h1.221v1.68h-2.139l-4.141-4.521h-1.338v2.842h0.84v1.68h-4.326v-1.68h1.66
		V10.469h-1.719V8.789L33.213,8.789z M47.568,19.16c0,0.286,0.021,0.549,0.063,0.786s0.103,0.464,0.181,0.679
		c0.241,0.651,0.626,1.141,1.157,1.47s1.131,0.493,1.802,0.493c0.527,0,1.04-0.073,1.538-0.22s1.021-0.376,1.567-0.688l0.732,1.24
		c-0.664,0.456-1.332,0.794-2.002,1.016s-1.367,0.332-2.09,0.332c-0.684,0-1.316-0.114-1.899-0.342
		c-0.583-0.228-1.084-0.566-1.504-1.016s-0.749-1.009-0.986-1.68c-0.237-0.671-0.356-1.452-0.356-2.344
		c0-0.723,0.101-1.404,0.303-2.046c0.202-0.642,0.503-1.201,0.903-1.68s0.897-0.857,1.489-1.138c0.593-0.28,1.283-0.42,2.07-0.42
		c0.762,0,1.398,0.115,1.909,0.347c0.511,0.231,0.928,0.537,1.25,0.918s0.566,0.815,0.732,1.304s0.282,0.986,0.347,1.494
		c0.033,0.247,0.054,0.498,0.063,0.752s0.015,0.501,0.015,0.742H47.568L47.568,19.16z M50.41,15.127
		c-0.423,0-0.792,0.061-1.108,0.181s-0.584,0.293-0.806,0.518s-0.399,0.5-0.532,0.825s-0.233,0.69-0.298,1.094h5.244
		c-0.026-0.378-0.086-0.726-0.181-1.045s-0.239-0.596-0.435-0.83s-0.446-0.417-0.752-0.547S50.859,15.127,50.41,15.127L50.41,15.127
		z M61.621,13.867h3.301v8.438h1.523v1.68h-4.805v-1.68h1.445v-6.758h-1.465V13.867z M62.744,10.283c0-0.169,0.034-0.33,0.103-0.483
		c0.068-0.152,0.16-0.286,0.273-0.4c0.113-0.113,0.249-0.205,0.405-0.273s0.322-0.103,0.498-0.103c0.169,0,0.331,0.034,0.483,0.103
		s0.287,0.16,0.4,0.273c0.113,0.114,0.205,0.248,0.273,0.4c0.068,0.153,0.103,0.314,0.103,0.483c0,0.176-0.034,0.342-0.103,0.498
		s-0.16,0.295-0.273,0.415c-0.113,0.121-0.248,0.215-0.4,0.283s-0.314,0.103-0.483,0.103c-0.176,0-0.342-0.034-0.498-0.103
		s-0.292-0.162-0.405-0.283c-0.113-0.12-0.205-0.259-0.273-0.415S62.744,10.459,62.744,10.283z M71.045,13.867h2.373v1.475h-2.393
		l-0.029,5.84c0,0.397,0.046,0.72,0.137,0.967c0.091,0.248,0.237,0.419,0.439,0.513c0.202,0.095,0.43,0.142,0.684,0.142
		c0.273,0,0.515-0.024,0.723-0.073s0.437-0.132,0.684-0.249l0.42,1.221c-0.312,0.163-0.642,0.292-0.986,0.386
		c-0.345,0.095-0.752,0.142-1.221,0.142c-0.442,0-0.829-0.054-1.157-0.161s-0.605-0.288-0.83-0.542s-0.393-0.594-0.503-1.021
		c-0.11-0.426-0.166-0.958-0.166-1.597l0.029-5.566h-1.611v-1.475h1.631v-2.422l1.777-0.84V13.867L71.045,13.867z M80.352,9.18
		h5.986c0.664,0,1.274,0.086,1.831,0.259c0.557,0.172,1.039,0.426,1.445,0.762c0.406,0.335,0.723,0.753,0.947,1.255
		c0.225,0.501,0.337,1.077,0.337,1.729c0,0.54-0.11,1.05-0.332,1.528s-0.534,0.896-0.938,1.255c-0.403,0.357-0.888,0.641-1.45,0.85
		c-0.562,0.208-1.189,0.312-1.88,0.312h-2.627v5.176h1.484v1.68h-4.805v-1.68h1.406V10.868h-1.406V9.18L80.352,9.18z M83.672,10.869
		v4.658h2.666c0.371,0,0.712-0.05,1.021-0.151c0.309-0.101,0.576-0.249,0.801-0.444s0.4-0.439,0.527-0.732s0.19-0.631,0.19-1.016
		c0-0.729-0.222-1.297-0.664-1.704c-0.442-0.406-1.149-0.61-2.119-0.61H83.672z M92.217,18.926c0.007-0.801,0.136-1.53,0.386-2.188
		s0.601-1.223,1.05-1.694s0.983-0.835,1.602-1.089s1.299-0.381,2.041-0.381c0.749,0,1.435,0.127,2.056,0.381
		s1.154,0.613,1.597,1.079s0.788,1.027,1.035,1.685s0.371,1.387,0.371,2.188c0,0.788-0.124,1.512-0.371,2.173
		s-0.593,1.229-1.035,1.704s-0.976,0.845-1.597,1.108s-1.307,0.396-2.056,0.396c-0.762,0-1.452-0.13-2.07-0.391
		s-1.149-0.627-1.592-1.099s-0.788-1.037-1.035-1.694S92.224,19.72,92.217,18.926L92.217,18.926z M94.141,18.926
		c0,0.579,0.083,1.104,0.249,1.572s0.395,0.867,0.684,1.196s0.625,0.583,1.006,0.762s0.786,0.269,1.216,0.269
		c0.449,0,0.868-0.088,1.255-0.264s0.725-0.428,1.011-0.757s0.511-0.728,0.674-1.196s0.244-0.996,0.244-1.582
		c0-0.612-0.081-1.155-0.244-1.631s-0.386-0.872-0.669-1.191s-0.62-0.56-1.011-0.723s-0.811-0.244-1.26-0.244
		c-0.43,0-0.835,0.081-1.216,0.244s-0.717,0.403-1.006,0.723c-0.29,0.319-0.518,0.716-0.684,1.191S94.141,18.313,94.141,18.926
		L94.141,18.926z M103.916,13.867h3.223v0.84c0.43-0.332,0.898-0.596,1.406-0.791s1.032-0.293,1.572-0.293
		c0.664,0,1.272,0.124,1.826,0.371c0.554,0.248,1.03,0.596,1.431,1.045s0.711,0.988,0.933,1.616
		c0.222,0.629,0.332,1.323,0.332,2.085c0,0.814-0.124,1.557-0.371,2.227c-0.247,0.671-0.591,1.245-1.03,1.724
		s-0.962,0.852-1.567,1.118c-0.605,0.268-1.27,0.4-1.992,0.4c-0.515,0-0.972-0.054-1.372-0.161s-0.783-0.245-1.147-0.415v3.271
		h1.582v1.68h-4.805v-1.68h1.387V15.548h-1.406V13.867L103.916,13.867z M109.639,15.225c-0.469,0-0.919,0.095-1.353,0.283
		s-0.809,0.449-1.128,0.781v5.479c0.215,0.222,0.522,0.42,0.923,0.596s0.9,0.264,1.499,0.264c0.417,0,0.817-0.081,1.201-0.244
		s0.723-0.405,1.016-0.728s0.527-0.721,0.703-1.196s0.264-1.025,0.264-1.65c0-0.573-0.083-1.081-0.249-1.523
		s-0.391-0.817-0.674-1.123s-0.613-0.539-0.991-0.698S110.068,15.225,109.639,15.225L109.639,15.225z M117.598,22.803
		c0-0.169,0.034-0.33,0.103-0.483s0.16-0.286,0.273-0.4s0.249-0.205,0.405-0.273s0.322-0.103,0.498-0.103
		c0.169,0,0.331,0.034,0.483,0.103s0.287,0.159,0.4,0.273s0.205,0.247,0.273,0.4s0.103,0.314,0.103,0.483
		c0,0.176-0.034,0.342-0.103,0.498s-0.16,0.295-0.273,0.415s-0.248,0.215-0.4,0.283s-0.314,0.103-0.483,0.103
		c-0.176,0-0.342-0.034-0.498-0.103s-0.292-0.163-0.405-0.283s-0.205-0.259-0.273-0.415S117.598,22.979,117.598,22.803z
		 M117.598,8.584h2.539l-0.4,11.396h-1.738L117.598,8.584z"/>
</g>
<g id="SvgjsG1013" transform="translate(25.004461415507656,-5.999991861990205) scale(1.199998372398041)" xmlns:name="symbol_mainfill">
	<g transform="translate(0,-952.36216)">
		<path fill="#FFFFFF" d="M50,957.362c-3.438,0-6.556,1.568-8.982,4.054c-2.426,2.486-4.293,5.86-5.781,9.88
			c-2.976,8.04-4.423,18.758-4.423,30.564c0,4.374,0.258,8.595,0.74,12.585c-2.348-0.302-4.766-0.468-7.252-0.58l-2.616-0.118v2.619
			c0,16.962,12.566,30.996,28.313,30.996s28.312-14.034,28.312-30.996v-2.773l-2.758,0.282c-2.31,0.237-4.713,0.547-7.182,1.14
			c0.529-4.157,0.812-8.572,0.812-13.156c0-11.806-1.447-22.524-4.422-30.564c-1.488-4.019-3.356-7.393-5.781-9.88
			C56.556,958.931,53.438,957.362,50,957.362L50,957.362z M50,962.367c1.993,0,3.677,0.782,5.398,2.546
			c1.72,1.764,3.345,4.541,4.67,8.12c2.65,7.16,4.111,17.44,4.111,28.827c0,5.273-0.405,10.308-1.123,14.914
			c-3.577,1.551-7.248,3.966-10.944,7.849c-1.994-2.244-4.105-4.061-6.359-5.482c-1.306-0.823-2.646-1.508-4.016-2.091
			c0.405-0.333,0.667-0.833,0.667-1.406c0-1.019-0.808-1.826-1.827-1.826c-1.018,0-1.826,0.807-1.826,1.826
			c0,0.111,0.011,0.219,0.029,0.324c-0.674-0.209-1.353-0.402-2.041-0.572c-0.589-4.226-0.919-8.783-0.919-13.535
			c0-11.388,1.462-21.667,4.112-28.827c1.324-3.58,2.948-6.357,4.669-8.121C46.322,963.149,48.006,962.368,50,962.367L50,962.367z
			 M50,966.707c-1.019,0-1.827,0.807-1.827,1.826c0,1.019,0.808,1.827,1.827,1.827c1.018-0.001,1.826-0.808,1.826-1.827
			C51.826,967.514,51.019,966.707,50,966.707z M45.289,971.418c-1.019-0.001-1.827,0.807-1.827,1.826
			c0,1.019,0.808,1.826,1.827,1.826s1.827-0.807,1.826-1.826C47.115,972.225,46.308,971.417,45.289,971.418z M54.711,971.418
			c-1.019-0.001-1.827,0.807-1.827,1.826c0,1.019,0.808,1.826,1.827,1.826s1.827-0.807,1.827-1.826
			C56.538,972.225,55.73,971.417,54.711,971.418z M40.578,976.129c-1.019,0-1.827,0.807-1.826,1.826
			c0,1.019,0.808,1.826,1.826,1.826c1.019,0,1.827-0.807,1.827-1.826S41.597,976.129,40.578,976.129z M50,976.129
			c-1.019,0-1.827,0.807-1.827,1.826s0.808,1.826,1.827,1.826c1.018,0,1.826-0.807,1.826-1.826
			C51.826,976.937,51.019,976.129,50,976.129z M59.422,976.129c-1.019,0-1.826,0.807-1.826,1.826c0,1.018,0.807,1.826,1.826,1.826
			c1.019,0,1.826-0.807,1.826-1.826S60.441,976.129,59.422,976.129z M45.289,980.84c-1.019,0-1.827,0.807-1.827,1.826
			c0,1.019,0.808,1.827,1.827,1.827s1.827-0.808,1.826-1.827C47.115,981.647,46.308,980.84,45.289,980.84z M54.711,980.84
			c-1.019,0-1.827,0.807-1.827,1.826c0,1.019,0.808,1.827,1.827,1.827s1.827-0.808,1.827-1.827
			C56.538,981.647,55.73,980.84,54.711,980.84z M40.578,985.55c-1.019,0-1.827,0.808-1.826,1.827c0,1.019,0.807,1.826,1.826,1.826
			c1.019,0,1.827-0.807,1.827-1.826C42.404,986.358,41.597,985.55,40.578,985.55z M50,985.55c-1.019,0-1.827,0.808-1.827,1.827
			c0,1.019,0.808,1.826,1.827,1.826c1.018,0,1.826-0.807,1.826-1.826C51.826,986.358,51.019,985.551,50,985.55z M59.422,985.55
			c-1.019,0.001-1.826,0.808-1.826,1.827c0,1.019,0.807,1.826,1.826,1.826c1.019,0,1.826-0.807,1.826-1.826
			C61.248,986.358,60.441,985.55,59.422,985.55z M45.289,990.262c-1.019,0-1.827,0.807-1.827,1.826c0,1.019,0.808,1.826,1.827,1.826
			c1.018,0,1.826-0.807,1.826-1.826C47.115,991.069,46.308,990.262,45.289,990.262z M54.711,990.262
			c-1.019,0-1.827,0.807-1.827,1.826c0.001,1.019,0.808,1.826,1.827,1.826s1.826-0.807,1.827-1.826
			C56.538,991.069,55.73,990.262,54.711,990.262z M40.578,994.973c-1.019,0-1.827,0.807-1.826,1.826
			c0,1.019,0.807,1.827,1.826,1.826c1.019,0.001,1.827-0.807,1.827-1.826C42.404,995.78,41.597,994.973,40.578,994.973z M50,994.973
			c-1.019,0-1.827,0.807-1.827,1.826c0,1.019,0.808,1.827,1.827,1.826c1.018,0,1.826-0.807,1.826-1.826
			C51.826,995.78,51.019,994.973,50,994.973z M59.422,994.973c-1.019,0-1.826,0.807-1.826,1.826c0,1.019,0.807,1.826,1.826,1.826
			c1.019,0.001,1.826-0.807,1.826-1.826C61.248,995.78,60.441,994.973,59.422,994.973z M45.289,999.684
			c-1.019,0-1.827,0.807-1.827,1.826s0.808,1.826,1.827,1.826s1.827-0.807,1.826-1.826
			C47.115,1000.492,46.307,999.684,45.289,999.684z M54.711,999.684c-1.019,0-1.826,0.807-1.827,1.826
			c0,1.019,0.808,1.826,1.827,1.826s1.827-0.807,1.827-1.826C56.537,1000.492,55.73,999.684,54.711,999.684z M40.578,1004.395
			c-1.019,0-1.827,0.807-1.826,1.826c0,1.019,0.807,1.827,1.826,1.827c1.019,0,1.827-0.808,1.827-1.827
			C42.404,1005.203,41.597,1004.395,40.578,1004.395z M50,1004.395c-1.019,0-1.827,0.807-1.827,1.826
			c0,1.019,0.808,1.827,1.827,1.827c1.018,0,1.826-0.808,1.826-1.827C51.826,1005.203,51.019,1004.395,50,1004.395z
			 M59.422,1004.395c-1.019,0-1.826,0.808-1.826,1.826c0,1.019,0.807,1.826,1.826,1.826c1.019,0,1.826-0.807,1.826-1.826
			C61.248,1005.203,60.441,1004.395,59.422,1004.395z M45.289,1009.106c-1.019,0-1.827,0.807-1.827,1.826
			c0,1.019,0.808,1.826,1.827,1.826s1.827-0.807,1.826-1.826C47.115,1009.914,46.308,1009.106,45.289,1009.106z M54.711,1009.106
			c-1.019,0-1.827,0.807-1.827,1.826c0,1.019,0.808,1.827,1.827,1.826c1.019,0,1.827-0.807,1.827-1.826
			C56.538,1009.914,55.73,1009.106,54.711,1009.106z M50,1013.818c-1.019,0-1.826,0.807-1.827,1.826
			c0,1.019,0.808,1.826,1.827,1.826c1.018,0,1.826-0.807,1.826-1.826C51.826,1014.625,51.019,1013.818,50,1013.818z
			 M59.422,1013.818c-1.019,0.001-1.826,0.807-1.826,1.826c0,1.019,0.807,1.826,1.826,1.826c1.019,0,1.826-0.807,1.826-1.826
			C61.248,1014.625,60.441,1013.818,59.422,1013.818z M26.816,1019.06c6.338,0.44,11.68,1.425,16.27,4.316
			c4.846,3.053,9.191,8.372,13.17,18.006c-1.997,0.619-4.09,0.974-6.255,0.974C38.04,1042.357,28.026,1032.273,26.816,1019.06z
			 M73.16,1019.23c-0.861,8.827-5.653,16.232-12.322,20.141c-1.752-4.218-3.628-7.771-5.64-10.74
			C61.621,1021.51,67.143,1019.978,73.16,1019.23z"/>
	</g>
</g>
</svg>
