<?xml version="1.0" encoding="utf-8"?>
<!-- Generator: Adobe Illustrator 15.1.0, SVG Export Plug-In . SVG Version: 6.00 Build 0)  -->
<!DOCTYPE svg PUBLIC "-//W3C//DTD SVG 1.1//EN" "http://www.w3.org/Graphics/SVG/1.1/DTD/svg11.dtd">
<svg version="1.1" id="Layer_1" xmlns="http://www.w3.org/2000/svg" xmlns:xlink="http://www.w3.org/1999/xlink" x="0px" y="0px"
	 width="170.008px" height="192.605px" viewBox="0 0 170.008 192.605" enable-background="new 0 0 170.008 192.605"
	 xml:space="preserve">
<g id="SvgjsG1011" transform="translate(-3.1900012493133545,93.00051307678223)" xmlns:name="mainText_mainfill">
	<path fill="#FFFFFF" d="M17.516,31.958c4.524,0.522,4.234,5.452,4.176,9.106c-0.116,3.074-0.406,6.147-0.812,9.164
		c-0.232,1.914-0.58,2.958-2.552,3.596c-3.306,1.103-7.772,1.276-11.426,0.754c-0.058,4.408-0.058,8.874-0.058,13.282
		c0,2.32-3.654,2.32-3.654,0c0-11.368,0.058-22.678,0.58-33.988c0.058-1.044,0.812-1.798,1.856-1.855
		C9.512,31.842,13.572,31.494,17.516,31.958z M18.038,40.716c0-1.275,0.406-4.06-0.406-5.161c0.174,0.29-0.522,0-1.044,0
		c-0.87-0.116-1.74-0.116-2.61-0.116c-2.204,0-4.408,0.058-6.612,0.174C7.134,40.716,7.018,45.82,6.96,50.924
		c3.248,0.522,6.554-0.464,9.802-0.464c0.116,0,0.348-0.058,0.522-0.115c-0.058,0-0.058-0.059-0.058-0.116
		c-0.116-0.87,0.29-2.146,0.348-3.074C17.806,45.008,17.98,42.862,18.038,40.716z M45.356,30.798
		c2.204,1.45,1.856,6.148,1.972,8.353c0.522,8.294,0.638,16.936-0.348,25.172c-0.29,2.784-1.044,4.118-4.002,4.64
		c-3.712,0.639-8.874,1.16-12.47-0.29c-2.494-0.985-2.32-3.073-2.378-5.394c-0.116-4.118,0-8.236,0.116-12.354
		c0.116-4.292,0.29-8.584,0.464-12.876c0.116-2.088-0.174-4.813,0.638-6.728c0.406-0.87,1.044-1.102,1.74-0.928
		c2.088-0.174,4.234-0.232,6.322-0.232C39.44,30.102,43.616,29.58,45.356,30.798z M43.674,60.262c0.406-7.25,0.464-14.616,0-21.866
		c-0.116-1.276-0.174-2.552-0.406-3.828c-0.058-0.174-0.058-0.348-0.116-0.58c-0.348,0-0.696-0.058-0.928-0.116
		c-3.19-0.174-6.438-0.116-9.628,0.059c0,0.231,0,0.521-0.058,0.754c-0.058,1.45-0.116,2.899-0.232,4.35
		c-0.174,4.176-0.29,8.294-0.406,12.47c-0.116,3.538-0.174,7.019-0.174,10.498c0,1.044,0.232,2.204,0.116,3.19v0.116
		c0.174,0,0.58,0.174,0.812,0.174c1.972,0.116,3.886,0.348,5.858,0.231c1.45-0.058,3.306-0.695,4.698-0.521
		c0-0.348,0.116-0.754,0.174-1.044C43.558,62.872,43.616,61.538,43.674,60.262z M68.44,31.958c4.524,0.522,4.234,5.452,4.176,9.106
		c-0.116,3.074-0.406,6.147-0.812,9.164c-0.232,1.914-0.58,2.958-2.552,3.596c-3.306,1.103-7.772,1.276-11.426,0.754
		c-0.058,4.408-0.058,8.874-0.058,13.282c0,2.32-3.654,2.32-3.654,0c0-11.368,0.058-22.678,0.58-33.988
		c0.058-1.044,0.812-1.798,1.856-1.855C60.436,31.842,64.496,31.494,68.44,31.958z M68.962,40.716c0-1.275,0.406-4.06-0.406-5.161
		c0.174,0.29-0.522,0-1.044,0c-0.87-0.116-1.74-0.116-2.61-0.116c-2.204,0-4.408,0.058-6.612,0.174
		c-0.232,5.104-0.348,10.208-0.406,15.312c3.248,0.522,6.554-0.464,9.802-0.464c0.116,0,0.348-0.058,0.522-0.115
		c-0.058,0-0.058-0.059-0.058-0.116c-0.116-0.87,0.29-2.146,0.348-3.074C68.73,45.008,68.904,42.862,68.962,40.716z M95.526,65.772
		c2.377,0.058,2.377,3.712,0,3.596c-3.19-0.058-6.438,0.116-9.628,0.116c-1.682,0.058-4.64,0.58-5.8-1.103
		c-1.45-2.088-0.928-6.438-1.044-8.815c-0.116-5.162-0.116-10.324,0.174-15.544c0.116-3.307-0.058-7.599,1.334-10.672
		c0.754-1.624,1.798-1.798,3.48-1.74c3.48,0.058,6.96-0.116,10.439-0.116c2.32,0,2.32,3.654,0,3.654
		c-1.972,0-3.943,0.058-5.857,0.058c-1.45,0.059-3.364,0.349-4.814,0.116c0,0.58-0.348,1.45-0.464,2.03
		c-0.696,5.046-0.696,10.266-0.696,15.37c0,2.609,0,5.277,0.116,7.888c0.058,1.624,0.464,3.422,0.406,5.046
		c0.986-0.116,2.726,0.232,3.364,0.174C89.552,65.83,92.567,65.656,95.526,65.772z M120.987,30.798
		c2.205,1.45,1.856,6.148,1.973,8.353c0.521,8.294,0.639,16.936-0.348,25.172c-0.291,2.784-1.045,4.118-4.002,4.64
		c-3.713,0.639-8.875,1.16-12.471-0.29c-2.494-0.985-2.32-3.073-2.378-5.394c-0.116-4.118,0-8.236,0.116-12.354
		c0.116-4.292,0.29-8.584,0.464-12.876c0.116-2.088-0.174-4.813,0.638-6.728c0.406-0.87,1.045-1.102,1.74-0.928
		c2.088-0.174,4.234-0.232,6.322-0.232C115.071,30.102,119.248,29.58,120.987,30.798L120.987,30.798z M119.306,60.262
		c0.406-7.25,0.465-14.616,0-21.866c-0.115-1.276-0.174-2.552-0.406-3.828c-0.058-0.174-0.058-0.348-0.115-0.58
		c-0.348,0-0.696-0.058-0.928-0.116c-3.19-0.174-6.438-0.116-9.629,0.059c0,0.231,0,0.521-0.058,0.754
		c-0.058,1.45-0.116,2.899-0.231,4.35c-0.174,4.176-0.291,8.294-0.406,12.47c-0.116,3.538-0.174,7.019-0.174,10.498
		c0,1.044,0.231,2.204,0.115,3.19v0.116c0.174,0,0.58,0.174,0.812,0.174c1.972,0.116,3.886,0.348,5.857,0.231
		c1.45-0.058,3.307-0.695,4.698-0.521c0-0.348,0.116-0.754,0.175-1.044C119.19,62.872,119.248,61.538,119.306,60.262z
		 M145.696,32.422c2.899,1.74,2.203,8.12,2.088,10.847c-0.116,2.842,0.232,8.584-3.016,9.802c-1.045,0.406-2.205,0.696-3.423,0.812
		c2.03,4.234,3.712,8.584,5.568,12.876c0.928,2.146-2.204,4.003-3.132,1.856c-2.088-4.872-4.061-9.86-6.438-14.558
		c-1.334-0.059-2.668-0.175-3.886-0.29c0,4.697-0.059,9.396-0.059,14.094c0,2.32-3.653,2.32-3.653,0
		c0-11.311,0.174-22.562,0.174-33.872c0-0.174,0.058-0.348,0.116-0.522c0.115-0.869,0.695-1.624,1.74-1.682
		c2.783-0.116,5.567-0.058,8.352,0C141.752,31.842,144.246,31.552,145.696,32.422z M144.13,42.63
		c0.059-1.798,0.116-3.596-0.115-5.336c-0.059-0.58-0.175-1.159-0.349-1.739c-0.058,0-0.174,0.058-0.29,0.058
		c-1.855,0.232-4.061-0.174-5.916-0.232h-3.887c0,4.931-0.057,9.803-0.057,14.732c1.508,0.116,3.016,0.116,4.523,0.058
		c1.624,0,3.654-0.58,5.22-0.405h0.116c-0.059-0.58,0.29-1.45,0.406-2.03C144.015,46.052,144.13,44.312,144.13,42.63z
		 M172.956,32.48c-0.521,11.716,0.348,23.548,0.232,35.322c0,1.798-2.494,2.493-3.365,0.928c-3.363-5.685-5.567-12.296-8.062-18.271
		c-1.159-2.668-2.436-5.394-3.653-8.12c-0.116,8.526-0.291,17.053,0.174,25.521c0.174,2.32-3.48,2.32-3.596,0
		c-0.754-11.6-0.117-23.432-0.117-35.09c0-2.088,3.017-2.437,3.597-0.464c1.683,5.741,4.64,11.367,6.96,16.878
		c1.45,3.479,2.842,7.134,4.35,10.729c-0.174-9.164-0.58-18.328-0.174-27.434C169.418,30.102,173.071,30.102,172.956,32.48z"/>
</g>
<g id="SvgjsG1013" transform="translate(25.004461415507656,-5.999991861990205) scale(1.199998372398041)" xmlns:name="symbol_mainfill">
	<g transform="translate(0,-952.36216)">
		<path fill="#FFFFFF" d="M50,957.362c-3.438,0-6.556,1.568-8.982,4.054c-2.426,2.486-4.293,5.86-5.781,9.88
			c-2.976,8.04-4.423,18.758-4.423,30.564c0,4.374,0.258,8.595,0.74,12.585c-2.348-0.302-4.766-0.468-7.252-0.58l-2.616-0.118v2.619
			c0,16.962,12.566,30.996,28.313,30.996s28.312-14.034,28.312-30.996v-2.773l-2.758,0.282c-2.31,0.237-4.713,0.547-7.182,1.14
			c0.529-4.157,0.812-8.572,0.812-13.156c0-11.806-1.447-22.524-4.422-30.564c-1.488-4.019-3.356-7.393-5.781-9.88
			C56.556,958.931,53.438,957.362,50,957.362L50,957.362z M50,962.367c1.993,0,3.677,0.782,5.398,2.546
			c1.72,1.764,3.345,4.541,4.67,8.12c2.65,7.16,4.111,17.44,4.111,28.827c0,5.273-0.405,10.308-1.123,14.914
			c-3.577,1.551-7.248,3.966-10.944,7.849c-1.994-2.244-4.105-4.061-6.359-5.482c-1.306-0.823-2.646-1.508-4.016-2.091
			c0.405-0.333,0.667-0.833,0.667-1.406c0-1.019-0.808-1.826-1.827-1.826c-1.018,0-1.826,0.807-1.826,1.826
			c0,0.111,0.011,0.219,0.029,0.324c-0.674-0.209-1.353-0.402-2.041-0.572c-0.589-4.226-0.919-8.783-0.919-13.535
			c0-11.388,1.462-21.667,4.112-28.827c1.324-3.58,2.948-6.357,4.669-8.121C46.322,963.149,48.006,962.368,50,962.367L50,962.367z
			 M50,966.707c-1.019,0-1.827,0.807-1.827,1.826c0,1.019,0.808,1.827,1.827,1.827c1.018-0.001,1.826-0.808,1.826-1.827
			C51.826,967.514,51.019,966.707,50,966.707z M45.289,971.418c-1.019-0.001-1.827,0.807-1.827,1.826
			c0,1.019,0.808,1.826,1.827,1.826s1.827-0.807,1.826-1.826C47.115,972.225,46.308,971.417,45.289,971.418z M54.711,971.418
			c-1.019-0.001-1.827,0.807-1.827,1.826c0,1.019,0.808,1.826,1.827,1.826s1.827-0.807,1.827-1.826
			C56.538,972.225,55.73,971.417,54.711,971.418z M40.578,976.129c-1.019,0-1.827,0.807-1.826,1.826
			c0,1.019,0.808,1.826,1.826,1.826c1.019,0,1.827-0.807,1.827-1.826S41.597,976.129,40.578,976.129z M50,976.129
			c-1.019,0-1.827,0.807-1.827,1.826s0.808,1.826,1.827,1.826c1.018,0,1.826-0.807,1.826-1.826
			C51.826,976.937,51.019,976.129,50,976.129z M59.422,976.129c-1.019,0-1.826,0.807-1.826,1.826c0,1.018,0.807,1.826,1.826,1.826
			c1.019,0,1.826-0.807,1.826-1.826S60.441,976.129,59.422,976.129z M45.289,980.84c-1.019,0-1.827,0.807-1.827,1.826
			c0,1.019,0.808,1.827,1.827,1.827s1.827-0.808,1.826-1.827C47.115,981.647,46.308,980.84,45.289,980.84z M54.711,980.84
			c-1.019,0-1.827,0.807-1.827,1.826c0,1.019,0.808,1.827,1.827,1.827s1.827-0.808,1.827-1.827
			C56.538,981.647,55.73,980.84,54.711,980.84z M40.578,985.55c-1.019,0-1.827,0.808-1.826,1.827c0,1.019,0.807,1.826,1.826,1.826
			c1.019,0,1.827-0.807,1.827-1.826C42.404,986.358,41.597,985.55,40.578,985.55z M50,985.55c-1.019,0-1.827,0.808-1.827,1.827
			c0,1.019,0.808,1.826,1.827,1.826c1.018,0,1.826-0.807,1.826-1.826C51.826,986.358,51.019,985.551,50,985.55z M59.422,985.55
			c-1.019,0.001-1.826,0.808-1.826,1.827c0,1.019,0.807,1.826,1.826,1.826c1.019,0,1.826-0.807,1.826-1.826
			C61.248,986.358,60.441,985.55,59.422,985.55z M45.289,990.262c-1.019,0-1.827,0.807-1.827,1.826c0,1.019,0.808,1.826,1.827,1.826
			c1.018,0,1.826-0.807,1.826-1.826C47.115,991.069,46.308,990.262,45.289,990.262z M54.711,990.262
			c-1.019,0-1.827,0.807-1.827,1.826c0.001,1.019,0.808,1.826,1.827,1.826s1.826-0.807,1.827-1.826
			C56.538,991.069,55.73,990.262,54.711,990.262z M40.578,994.973c-1.019,0-1.827,0.807-1.826,1.826
			c0,1.019,0.807,1.827,1.826,1.826c1.019,0.001,1.827-0.807,1.827-1.826C42.404,995.78,41.597,994.973,40.578,994.973z M50,994.973
			c-1.019,0-1.827,0.807-1.827,1.826c0,1.019,0.808,1.827,1.827,1.826c1.018,0,1.826-0.807,1.826-1.826
			C51.826,995.78,51.019,994.973,50,994.973z M59.422,994.973c-1.019,0-1.826,0.807-1.826,1.826c0,1.019,0.807,1.826,1.826,1.826
			c1.019,0.001,1.826-0.807,1.826-1.826C61.248,995.78,60.441,994.973,59.422,994.973z M45.289,999.684
			c-1.019,0-1.827,0.807-1.827,1.826s0.808,1.826,1.827,1.826s1.827-0.807,1.826-1.826
			C47.115,1000.492,46.307,999.684,45.289,999.684z M54.711,999.684c-1.019,0-1.826,0.807-1.827,1.826
			c0,1.019,0.808,1.826,1.827,1.826s1.827-0.807,1.827-1.826C56.537,1000.492,55.73,999.684,54.711,999.684z M40.578,1004.395
			c-1.019,0-1.827,0.807-1.826,1.826c0,1.019,0.807,1.827,1.826,1.827c1.019,0,1.827-0.808,1.827-1.827
			C42.404,1005.203,41.597,1004.395,40.578,1004.395z M50,1004.395c-1.019,0-1.827,0.807-1.827,1.826
			c0,1.019,0.808,1.827,1.827,1.827c1.018,0,1.826-0.808,1.826-1.827C51.826,1005.203,51.019,1004.395,50,1004.395z
			 M59.422,1004.395c-1.019,0-1.826,0.808-1.826,1.826c0,1.019,0.807,1.826,1.826,1.826c1.019,0,1.826-0.807,1.826-1.826
			C61.248,1005.203,60.441,1004.395,59.422,1004.395z M45.289,1009.106c-1.019,0-1.827,0.807-1.827,1.826
			c0,1.019,0.808,1.826,1.827,1.826s1.827-0.807,1.826-1.826C47.115,1009.914,46.308,1009.106,45.289,1009.106z M54.711,1009.106
			c-1.019,0-1.827,0.807-1.827,1.826c0,1.019,0.808,1.827,1.827,1.826c1.019,0,1.827-0.807,1.827-1.826
			C56.538,1009.914,55.73,1009.106,54.711,1009.106z M50,1013.818c-1.019,0-1.826,0.807-1.827,1.826
			c0,1.019,0.808,1.826,1.827,1.826c1.018,0,1.826-0.807,1.826-1.826C51.826,1014.625,51.019,1013.818,50,1013.818z
			 M59.422,1013.818c-1.019,0.001-1.826,0.807-1.826,1.826c0,1.019,0.807,1.826,1.826,1.826c1.019,0,1.826-0.807,1.826-1.826
			C61.248,1014.625,60.441,1013.818,59.422,1013.818z M26.816,1019.06c6.338,0.44,11.68,1.425,16.27,4.316
			c4.846,3.053,9.191,8.372,13.17,18.006c-1.997,0.619-4.09,0.974-6.255,0.974C38.04,1042.357,28.026,1032.273,26.816,1019.06z
			 M73.16,1019.23c-0.861,8.827-5.653,16.232-12.322,20.141c-1.752-4.218-3.628-7.771-5.64-10.74
			C61.621,1021.51,67.143,1019.978,73.16,1019.23z"/>
	</g>
</g>
</svg>
